<?xml version="1.0" encoding="utf-8"?>
<!-- Generator: Adobe Illustrator 16.0.0, SVG Export Plug-In . SVG Version: 6.00 Build 0)  -->
<!DOCTYPE svg PUBLIC "-//W3C//DTD SVG 1.1//EN" "http://www.w3.org/Graphics/SVG/1.1/DTD/svg11.dtd">
<svg version="1.1" id="Layer_1" xmlns="http://www.w3.org/2000/svg" xmlns:xlink="http://www.w3.org/1999/xlink" x="0px" y="0px"
	 width="135px" height="135px" viewBox="0 0 135 135" style="enable-background:new 0 0 135 135;" xml:space="preserve">
<style type="text/css">
<![CDATA[
	.st0{fill:#465652;}
	.st1{fill:#AAB9BA;}
	.st2{fill:#47C67B;}
	.st3{fill:#AAC8D1;}
	.st4{fill:none;stroke:#E83834;stroke-width:6;stroke-linecap:round;stroke-linejoin:round;stroke-miterlimit:10;}
	.st5{fill:#7BC67B;}
	.st6{fill:#7BC7FF;}
	.st7{fill:#7C34C1;}
	.st8{fill:#7C8D96;}
	.st9{fill:#AD2707;}
	.st10{fill:#ADB8BC;}
	.st11{fill:#107510;}
	.st12{fill:#7FE5D8;}
	.st13{fill:#AF4AD1;}
	.st14{fill:#E02B7E;}
	.st15{fill:#E04038;}
	.st16{fill:#AFD7DD;}
	.st17{fill:#E0A010;}
	.st18{fill:#E0D5A4;}
	.st19{fill:#12B2B2;}
	.st20{fill:#12D66B;}
	.st21{fill:#E1A9FF;}
	.st22{fill:#1362A8;}
	.st23{fill:#E2378D;}
	.st24{fill:#E29C37;}
	.st25{fill:#E2B90E;}
	.st26{fill:#E2BF91;}
	.st27{fill:#E2CBAA;}
	.st28{fill:#14A594;}
	.st29{fill:#E4E9ED;}
	.st30{fill:#4A5D60;}
	.st31{fill:#E5B076;}
	.st32{fill:#E5B1C4;}
	.st33{fill:#E5E4C3;}
	.st34{fill:#4B6466;}
	.st35{fill:#E6FF2E;}
	.st36{fill:#18AA67;}
	.st37{fill:#E86207;}
	.st38{fill:#E8A113;}
	.st39{fill:#E8B5A6;}
	.st40{fill:#E8E8ED;}
	.st41{fill:#4E5154;}
	.st42{fill:#E9F1F4;}
	.st43{fill:#4F4B48;}
	.st44{fill:#4F74E8;}
	.st45{fill:#808E93;}
	.st46{fill:#80949B;}
	.st47{fill:#80EDAC;}
	.st48{fill:#B122E0;}
	.st49{fill:#B2C4CC;}
	.st50{fill:#83D839;}
	.st51{fill:#B3C6C6;}
	.st52{fill:none;stroke:#33363A;stroke-width:3;stroke-linecap:round;stroke-linejoin:round;stroke-miterlimit:10;}
	.st53{fill:#1A8E1C;}
	.st54{fill:#1A93D6;}
	.st55{fill:#B50B0B;}
	.st56{fill:#1AD88F;}
	.st57{fill:#B5DAF4;}
	.st58{fill:#EA7B1F;}
	.st59{fill:#EA81BD;}
	.st60{fill:#87B8D6;}
	.st61{fill:#87C3F4;}
	.st62{fill:#EAC79D;}
	.st63{fill:#EADF11;}
	.st64{fill:#EAE4C5;}
	.st65{fill:#B78094;}
	.st66{fill:#8844D8;}
	.st67{fill:#EBF4F7;}
	.st68{fill:#893015;}
	.st69{fill:#89410B;}
	.st70{fill:#899BA3;}
	.st71{fill:#EDE3B9;}
	.st72{enable-background:new    ;}
	.st73{fill:#50FF9F;}
	.st74{fill:#EEDCF4;}
	.st75{fill:#EFA37D;}
	.st76{fill:#EFA3CC;}
	.st77{fill:#EFC99A;}
	.st78{fill:#54AF79;}
	.st79{fill:#BA503A;}
	.st80{fill:#BA8663;}
	.st81{fill:#8B4FE0;}
	.st82{fill:#58ED9B;}
	.st83{fill:#BC7DFF;}
	.st84{fill:#8D9AA3;}
	.st85{fill:#BCCAD3;}
	.st86{fill:#8DE4FF;}
	.st87{fill:#20B518;}
	.st88{fill:#BF44F2;}
	.st89{fill:#21CEA1;}
	.st90{fill:#BFDAE0;}
	.st91{fill:#F0FBFC;}
	.st92{fill:#F2D9A7;}
	.st93{fill:#F2EAC9;}
	.st94{fill:#24D1AF;}
	.st95{fill:#25931C;}
	.st96{fill:#F4C4B3;}
	.st97{fill:#F4D3A2;}
	.st98{fill:#F4D647;}
	.st99{fill:#F4D7B8;}
	.st100{fill:#F4EC8E;}
	.st101{fill:#5B524D;}
	.st102{fill:#F77819;}
	.st103{fill:#F79AE1;}
	.st104{fill:#5E707A;}
	.st105{fill:#F93585;}
	.st106{fill:#F95D5D;}
	.st107{fill:#F9C19B;}
	.st108{fill:#F9CB58;}
	.st109{fill:#F9D2B2;}
	.st110{fill:#F9F07D;}
	.st111{fill:#F9F1D2;}
	.st112{fill:#F9F4B7;}
	.st113{fill:#F9F9E4;}
	.st114{fill:#5F1DAA;}
	.st115{fill:#5F9AD6;}
	.st116{fill:#C0C0C4;}
	.st117{fill:#91EA57;}
	.st118{fill:#C12727;}
	.st119{fill:#C191A0;}
	.st120{fill:#923BB7;}
	.st121{fill:#93A0A3;}
	.st122{fill:#93F9EA;}
	.st123{fill:#93FF5A;}
	.st124{fill:#C4833D;}
	.st125{fill:#95A2A5;}
	.st126{fill:#965514;}
	.st127{fill:#96562C;}
	.st128{fill:#2AF42F;}
	.st129{fill:#C5D7DD;}
	.st130{fill:#C68510;}
	.st131{fill:#C6A86D;}
	.st132{fill:#C6BB8D;}
	.st133{fill:#2C9DCE;}
	.st134{fill:#FBFCF2;}
	.st135{fill:#FC70B0;}
	.st136{fill:#FCE6C8;}
	.st137{fill:#FCF7E3;}
	.st138{fill:#C90D6B;}
	.st139{fill:#FDFEFF;}
	.st140{fill:#FDFFDC;}
	.st141{fill:#FF1A1A;}
	.st142{fill:#FF5252;}
	.st143{fill:#FF5B00;}
	.st144{fill:#FF6155;}
	.st145{fill:#FF630D;}
	.st146{fill:#FF6666;}
	.st147{fill:#FF7676;}
	.st148{fill:#FF7900;}
	.st149{fill:#FF860D;}
	.st150{fill:#FF8B00;}
	.st151{fill:#FF8F8F;}
	.st152{fill:#FF900B;}
	.st153{fill:#FF908A;}
	.st154{fill:#FF960B;}
	.st155{fill:#FF9C0D;}
	.st156{fill:#FFA9D4;}
	.st157{fill:#FFAA00;}
	.st158{fill:#FFAD40;}
	.st159{fill:#FFAF10;}
	.st160{fill:#FFB000;}
	.st161{fill:#FFBE08;}
	.st162{fill:#FFBF31;}
	.st163{fill:#FFC200;}
	.st164{fill:#FFCAE8;}
	.st165{fill:#FFCCF5;}
	.st166{fill:#FFD00B;}
	.st167{fill:#FFD039;}
	.st168{fill:#FFD400;}
	.st169{fill:#FFD833;}
	.st170{fill:#FFDB80;}
	.st171{fill:#FFDDD2;}
	.st172{fill:#FFE6D4;}
	.st173{fill:#FFE6EB;}
	.st174{fill:#FFE98D;}
	.st175{fill:#FFECD2;}
	.st176{fill:#FFF1D9;}
	.st177{fill:#FFF24D;}
	.st178{fill:#FFF3C2;}
	.st179{fill:#FFF4C7;}
	.st180{fill:#FFF800;}
	.st181{fill:#FFF80D;}
	.st182{fill:#FFF9DE;}
	.st183{fill:#FFFBD7;}
	.st184{fill:#FFFBEB;}
	.st185{fill:#FFFCC0;}
	.st186{fill:#FFFCDC;}
	.st187{fill:#FFFFFA;}
	.st188{fill:#FFFFFF;}
	.st189{fill:#63797F;}
	.st190{fill:#65E529;}
	.st191{fill:#66310E;}
	.st192{fill:#663C17;}
	.st193{fill:#9A5AE5;}
	.st194{fill:#CA30EF;}
	.st195{fill:#6892FC;}
	.st196{fill:#9CFFC4;}
	.st197{fill:#CC4306;}
	.st198{fill:#CC549E;}
	.st199{fill:#9E3256;}
	.st200{fill:#CDFFBB;}
	.st201{fill:#CE86AF;}
	.st202{fill:#CED9DD;}
	
		.st203{fill:none;stroke:#33363A;stroke-width:3;stroke-linecap:round;stroke-linejoin:round;stroke-miterlimit:10;stroke-dasharray:6;}
	.st204{fill:#CFE1E2;}
	.st205{fill:#33363A;}
	.st206{fill:#34C166;}
	.st207{fill:#364B5B;}
	.st208{fill:#3662CE;}
	.st209{fill:#36C6FF;}
	.st210{fill:#6ADB9A;}
	.st211{fill:#6D5C4D;}
	.st212{fill:#6EBDF9;}
	.st213{fill:#0031FF;}
	.st214{fill:#0062FF;}
	.st215{fill:#0068FF;}
	.st216{fill:#0086FF;}
	.st217{fill:#009BE8;}
	.st218{fill:#00AAFF;}
	.st219{fill:#D271FF;}
	.st220{fill:#D363A9;}
	.st221{fill:#D3964C;}
	.st222{fill:#D3DFE2;}
	.st223{fill:#D3E0E2;}
	.st224{fill:#D3EFF4;}
	.st225{fill:#063B66;}
	.st226{fill:#D60909;}
	.st227{fill:#D61D1D;}
	.st228{fill:#D7F0FF;}
	.st229{fill:#09B285;}
	.st230{fill:#D8D593;}
	.st231{fill:#D8E2EA;}
	.st232{fill:#D8E5EA;}
	.st233{fill:#3E5054;}
	.st234{fill:#D988FF;}
	.st235{fill:#D9E7E8;}
	.st236{fill:#702252;}
	.st237{fill:#70D3E0;}
	.st238{fill:#A02FF2;}
	.st239{fill:#A2F255;}
	.st240{fill:#A35616;}
	.st241{fill:#A3CCCC;}
	.st242{fill:#0A6ADD;}
	.st243{fill:#A5145D;}
	.st244{fill:#A57555;}
	.st245{fill:#77D6FC;}
	.st246{fill:#7815CE;}
	.st247{fill:#A7BBC1;}
	.st248{fill:#DBD279;}
	.st249{fill:#0D5C9E;}
	.st250{fill:#A83C11;}
	.st251{fill:#A8633D;}
	.st252{fill:#A8A3E5;}
	.st253{fill:#DCE6EA;}
	.st254{fill:#DCE7EA;}
	.st255{fill:#A962E8;}
	.st256{fill:#DD2466;}
	.st257{fill:#DDC38A;}
	.st258{fill:#DDD2B1;}
	.st259{fill:#DFE7E8;}
	.st260{fill:#42B1E8;}
	.st261{fill:#436377;}
	.st262{fill:#43B530;}
]]>
</style>
<g>
	<g>
		<g>
			<g>
				<g>
					<g>
						<path class="st40" d="M67.501,46.34c-4.543,0-8.502-2.445-10.664-6.087c-0.002-0.004-0.006-0.006-0.008-0.008L44.937,28.35
							c-4.846-4.844-4.846-12.694,0-17.538c3.746-3.749,9.281-4.562,13.844-2.511c2.24-2.216,5.318-3.586,8.721-3.586
							c3.4,0,6.477,1.37,8.717,3.588c4.564-2.053,10.102-1.24,13.848,2.506c4.844,4.847,4.844,12.697,0,17.543L78.171,40.245
							c-0.004,0.004-0.008,0.007-0.012,0.01C75.997,43.895,72.038,46.34,67.501,46.34z"/>
					</g>
					<g>
						<path class="st188" d="M56.829,40.245l1.949,0.843L44.937,28.35c-4.846-4.844-4.846-12.694,0-17.538
							c1.98-1.985,4.471-3.123,7.049-3.47c2.578,0.347,5.064,1.484,7.049,3.467C63.876,15.655,61.671,35.4,56.829,40.245z"/>
					</g>
					<g>
						<path class="st205" d="M67.501,47.84c-4.811,0-9.335-2.545-11.854-6.656L43.876,29.41c-2.627-2.625-4.074-6.117-4.074-9.83
							s1.447-7.204,4.074-9.83c2.608-2.61,6.082-4.048,9.779-4.048c1.656,0,3.269,0.286,4.809,0.851
							c2.518-2.16,5.69-3.338,9.037-3.338c3.345,0,6.516,1.179,9.033,3.34c1.542-0.565,3.157-0.852,4.814-0.852
							c3.697,0,7.169,1.437,9.778,4.045c5.419,5.422,5.419,14.243,0,19.664L79.346,41.191C76.826,45.297,72.306,47.84,67.501,47.84z
							 M58.127,39.487c1.99,3.352,5.494,5.353,9.374,5.353c3.876,0,7.378-2,9.369-5.351c0.075-0.126,0.167-0.24,0.275-0.338
							l11.86-11.859c4.25-4.251,4.25-11.17,0-15.422c-2.042-2.042-4.761-3.167-7.656-3.167c-1.546,0-3.107,0.335-4.515,0.968
							c-0.565,0.255-1.23,0.134-1.67-0.302c-2.055-2.034-4.775-3.154-7.662-3.154c-2.888,0-5.611,1.12-7.666,3.152
							c-0.44,0.436-1.104,0.556-1.669,0.302c-1.407-0.632-2.966-0.966-4.51-0.966c-2.896,0-5.616,1.125-7.658,3.169
							c-2.061,2.06-3.195,4.798-3.195,7.709s1.135,5.649,3.195,7.708l11.878,11.881C57.972,39.264,58.058,39.371,58.127,39.487
							L58.127,39.487z"/>
					</g>
				</g>
				<g>
					<g>
						<path class="st205" d="M67.911,41.6c-0.384,0-0.768-0.146-1.061-0.439l-5.637-5.639c-0.585-0.586-0.585-1.536,0-2.122
							c0.586-0.585,1.536-0.585,2.122,0l5.637,5.639c0.585,0.586,0.585,1.536,0,2.122C68.679,41.453,68.295,41.6,67.911,41.6z"/>
					</g>
					<g>
						<path class="st205" d="M67.087,41.6c-0.384,0-0.768-0.146-1.061-0.439c-0.586-0.585-0.586-1.536,0-2.121l5.639-5.639
							c0.586-0.586,1.535-0.586,2.121,0c0.586,0.585,0.586,1.536,0,2.121l-5.639,5.639C67.854,41.453,67.471,41.6,67.087,41.6z"/>
					</g>
				</g>
			</g>
			<g>
				<path class="st188" d="M116.704,101.082c0,25.182-22.029,29.203-49.203,29.203s-49.203-4.021-49.203-29.203
					s22.029-55.055,49.203-55.055S116.704,75.9,116.704,101.082z"/>
			</g>
			<g>
				<path class="st40" d="M73.573,46.547c-24.307,3.998-43.131,31.261-43.131,54.535s18.824,28.469,43.131,29.122
					c24.307-0.653,43.131-5.848,43.131-29.122S97.88,50.545,73.573,46.547z"/>
			</g>
			<g>
				<path class="st205" d="M67.501,131.785c-26.334,0-50.703-3.72-50.703-30.703c0-25.616,22.617-56.555,50.703-56.555
					s50.703,30.939,50.703,56.555C118.204,128.065,93.835,131.785,67.501,131.785z M67.501,47.527
					c-26.424,0-47.703,29.297-47.703,53.555c0,22.992,19.07,27.703,47.703,27.703s47.703-4.711,47.703-27.703
					C115.204,76.825,93.925,47.527,67.501,47.527z"/>
			</g>
			<g>
				<g>
					<path class="st161" d="M88.136,46.775c0,3.141-2.545,5.687-5.686,5.687h-29.9c-3.141,0-5.686-2.546-5.686-5.687l0,0
						c0-3.141,2.545-5.688,5.686-5.688h29.9C85.591,41.088,88.136,43.635,88.136,46.775L88.136,46.775z"/>
				</g>
				<g>
					<path class="st152" d="M88.136,46.775L88.136,46.775c0,3.141-2.545,5.687-5.686,5.687h-29.9c-3.141,0-5.686-2.546-5.686-5.687
						l0,0"/>
				</g>
				<g>
					<path class="st205" d="M82.45,53.962h-29.9c-3.962,0-7.186-3.224-7.186-7.187c0-3.963,3.224-7.188,7.186-7.188h29.9
						c3.962,0,7.186,3.224,7.186,7.188C89.636,50.738,86.412,53.962,82.45,53.962z M52.55,42.588c-2.308,0-4.186,1.878-4.186,4.188
						c0,2.309,1.877,4.187,4.186,4.187h29.9c2.308,0,4.186-1.878,4.186-4.187c0-2.309-1.877-4.188-4.186-4.188H52.55z"/>
				</g>
			</g>
			<g>
				<path class="st176" d="M41.979,97.942c0-3.583,2.904-6.487,6.486-6.487c1.918,0,3.635,0.838,4.822,2.161
					c-0.58-2.985-3.207-5.241-6.363-5.241c-3.582,0-6.486,2.904-6.486,6.486c0,1.664,0.633,3.178,1.662,4.325
					C42.022,98.784,41.979,98.368,41.979,97.942z"/>
			</g>
			<g>
				<path class="st188" d="M36.601,109.852c1.4-3.298,5.207-4.836,8.506-3.438c1.766,0.75,3.02,2.191,3.596,3.874
					c0.631-2.976-0.906-6.078-3.811-7.311c-3.299-1.399-7.105,0.14-8.504,3.437c-0.652,1.532-0.66,3.172-0.16,4.631
					C36.313,110.644,36.435,110.244,36.601,109.852z"/>
			</g>
			<g>
				<path class="st176" d="M44.733,78.262c0-2.151,1.744-3.896,3.895-3.896c1.15,0,2.184,0.503,2.896,1.298
					c-0.35-1.793-1.928-3.147-3.822-3.147c-2.15,0-3.895,1.743-3.895,3.896c0,0.999,0.379,1.908,0.998,2.597
					C44.759,78.768,44.733,78.518,44.733,78.262z"/>
			</g>
			<g>
				<path class="st188" d="M50.354,63.453c1.258-1.744,3.693-2.139,5.436-0.879c0.934,0.674,1.477,1.686,1.59,2.747
					c0.766-1.658,0.279-3.681-1.256-4.788c-1.746-1.26-4.18-0.866-5.439,0.879c-0.584,0.811-0.809,1.769-0.709,2.689
					C50.079,63.879,50.204,63.66,50.354,63.453z"/>
			</g>
			<g>
				<path class="st188" d="M34.974,80.991c1.258-1.745,3.693-2.138,5.438-0.88c0.932,0.675,1.475,1.687,1.59,2.748
					c0.766-1.658,0.279-3.68-1.258-4.789c-1.744-1.258-4.178-0.865-5.438,0.88c-0.586,0.811-0.809,1.769-0.711,2.689
					C34.7,81.416,34.823,81.199,34.974,80.991z"/>
			</g>
		</g>
		<g>
			<path class="st205" d="M63.137,23.408c-0.21,0-0.423-0.044-0.626-0.137c-0.752-0.346-1.082-1.236-0.736-1.988
				c0.206-0.447,5.128-10.987,13.902-14.378c0.771-0.301,1.641,0.085,1.94,0.858c0.299,0.773-0.085,1.642-0.858,1.94
				C69.132,12.65,64.546,22.437,64.5,22.535C64.247,23.084,63.704,23.408,63.137,23.408z"/>
		</g>
		<g>
			<path class="st205" d="M53.49,17.971c-0.129,0-0.261-0.017-0.392-0.052c-0.8-0.216-1.273-1.04-1.057-1.839
				c0.074-0.275,1.874-6.771,6.606-9.581c0.712-0.423,1.632-0.188,2.056,0.524c0.423,0.712,0.188,1.632-0.524,2.056
				c-3.697,2.195-5.226,7.727-5.241,7.783C54.757,17.53,54.151,17.971,53.49,17.971z"/>
		</g>
	</g>
	<g>
		<g>
			<g>
				<circle class="st166" cx="67.5" cy="91.2" r="27.61"/>
			</g>
			<g>
				<path class="st161" d="M67.501,63.59v55.222c15.248,0,27.609-12.362,27.609-27.611C95.11,75.953,82.749,63.59,67.501,63.59z"/>
			</g>
			<g>
				<path class="st205" d="M67.501,120.312c-16.052,0-29.111-13.059-29.111-29.111c0-16.051,13.059-29.11,29.111-29.11
					c16.051,0,29.109,13.059,29.109,29.11C96.61,107.252,83.552,120.312,67.501,120.312z M67.501,65.09
					c-14.398,0-26.111,11.713-26.111,26.11c0,14.398,11.713,26.111,26.111,26.111c14.397,0,26.109-11.713,26.109-26.111
					C93.61,76.803,81.898,65.09,67.501,65.09z"/>
			</g>
		</g>
		<g>
			<g>
				<circle class="st166" cx="67.5" cy="91.201" r="21.374"/>
			</g>
			<g>
				<path class="st161" d="M52.386,76.088l30.229,30.227c8.348-8.347,8.348-21.881,0-30.227
					C74.267,67.741,60.733,67.74,52.386,76.088z"/>
			</g>
			<g>
				<path class="st205" d="M67.5,114.076c-6.11,0-11.854-2.38-16.175-6.701c-4.321-4.32-6.7-10.064-6.7-16.174
					c0-6.11,2.379-11.854,6.7-16.173c4.32-4.32,10.064-6.7,16.174-6.7s11.854,2.379,16.175,6.7c4.321,4.319,6.7,10.063,6.7,16.173
					c0,6.11-2.379,11.854-6.7,16.174C79.354,111.696,73.61,114.076,67.5,114.076z M67.5,71.328c-5.309,0-10.299,2.067-14.053,5.821
					s-5.821,8.744-5.821,14.052s2.067,10.299,5.821,14.053c3.754,3.754,8.745,5.822,14.054,5.822s10.299-2.068,14.054-5.822
					c3.754-3.754,5.821-8.745,5.821-14.053s-2.067-10.299-5.821-14.052C77.799,73.395,72.808,71.328,67.5,71.328z"/>
			</g>
		</g>
		<g>
			<g>
				<g>
					<path class="st205" d="M67.501,69.004c-0.829,0-1.5-0.671-1.5-1.5v-1.572c0-0.829,0.671-1.5,1.5-1.5s1.5,0.671,1.5,1.5v1.572
						C69.001,68.333,68.33,69.004,67.501,69.004z"/>
				</g>
				<g>
					<path class="st205" d="M67.501,117.97c-0.829,0-1.5-0.671-1.5-1.5V114.9c0-0.829,0.671-1.5,1.5-1.5s1.5,0.671,1.5,1.5v1.569
						C69.001,117.298,68.33,117.97,67.501,117.97z"/>
				</g>
			</g>
			<g>
				<g>
					<path class="st205" d="M84.259,75.943c-0.384,0-0.768-0.146-1.061-0.439c-0.586-0.585-0.586-1.536,0-2.121l1.109-1.109
						c0.586-0.586,1.535-0.586,2.121,0c0.586,0.585,0.586,1.536,0,2.121l-1.109,1.109C85.026,75.797,84.643,75.943,84.259,75.943z"
						/>
				</g>
				<g>
					<path class="st205" d="M49.634,110.568c-0.384,0-0.768-0.146-1.061-0.439c-0.586-0.585-0.586-1.536,0-2.121l1.109-1.109
						c0.586-0.586,1.535-0.586,2.121,0c0.586,0.585,0.586,1.536,0,2.121l-1.109,1.109C50.401,110.422,50.018,110.568,49.634,110.568
						z"/>
				</g>
			</g>
			<g>
				<g>
					<path class="st205" d="M92.769,92.701H91.2c-0.829,0-1.5-0.671-1.5-1.5s0.671-1.5,1.5-1.5h1.568c0.829,0,1.5,0.671,1.5,1.5
						S93.597,92.701,92.769,92.701z"/>
				</g>
				<g>
					<path class="st205" d="M43.8,92.701h-1.568c-0.829,0-1.5-0.671-1.5-1.5s0.671-1.5,1.5-1.5H43.8c0.829,0,1.5,0.671,1.5,1.5
						S44.628,92.701,43.8,92.701z"/>
				</g>
			</g>
			<g>
				<g>
					<path class="st205" d="M85.368,110.568c-0.384,0-0.768-0.146-1.061-0.439l-1.109-1.109c-0.586-0.585-0.586-1.536,0-2.121
						c0.586-0.586,1.535-0.586,2.121,0l1.109,1.109c0.586,0.585,0.586,1.536,0,2.121C86.136,110.422,85.752,110.568,85.368,110.568z
						"/>
				</g>
				<g>
					<path class="st205" d="M50.741,75.943c-0.384,0-0.768-0.146-1.061-0.439l-1.109-1.109c-0.586-0.585-0.586-1.536,0-2.121
						c0.586-0.586,1.535-0.586,2.121,0l1.109,1.109c0.586,0.585,0.586,1.536,0,2.121C51.509,75.797,51.125,75.943,50.741,75.943z"/>
				</g>
			</g>
		</g>
		<g>
			<g>
				<g>
					<path class="st205" d="M55.653,72.177c-0.518,0-1.022-0.269-1.3-0.75l-0.785-1.357c-0.415-0.717-0.17-1.635,0.547-2.049
						c0.717-0.414,1.634-0.169,2.049,0.547l0.785,1.357c0.415,0.717,0.17,1.635-0.547,2.049
						C56.166,72.112,55.908,72.177,55.653,72.177z"/>
				</g>
				<g>
					<path class="st205" d="M80.135,114.584c-0.519,0-1.023-0.27-1.301-0.751l-0.783-1.359c-0.414-0.718-0.167-1.635,0.551-2.049
						c0.718-0.413,1.635-0.167,2.049,0.551l0.783,1.359c0.414,0.718,0.167,1.635-0.551,2.049
						C80.646,114.52,80.389,114.584,80.135,114.584z"/>
				</g>
			</g>
			<g>
				<g>
					<path class="st205" d="M73.635,69.811c-0.128,0-0.259-0.017-0.389-0.051c-0.8-0.214-1.275-1.037-1.062-1.837l0.406-1.518
						c0.215-0.8,1.04-1.274,1.837-1.062c0.8,0.214,1.275,1.037,1.062,1.837l-0.406,1.518C74.903,69.369,74.297,69.811,73.635,69.811
						z"/>
				</g>
				<g>
					<path class="st205" d="M60.961,117.109c-0.129,0-0.259-0.017-0.39-0.052c-0.8-0.214-1.275-1.037-1.06-1.837l0.406-1.515
						c0.215-0.8,1.039-1.275,1.837-1.06c0.8,0.214,1.275,1.037,1.06,1.837l-0.406,1.515
						C62.229,116.667,61.623,117.109,60.961,117.109z"/>
				</g>
			</g>
			<g>
				<g>
					<path class="st205" d="M88.026,80.853c-0.518,0-1.021-0.269-1.299-0.749c-0.416-0.717-0.171-1.635,0.546-2.05l1.357-0.786
						c0.718-0.416,1.635-0.17,2.05,0.546c0.416,0.717,0.171,1.635-0.546,2.05l-1.357,0.786
						C88.54,80.788,88.281,80.853,88.026,80.853z"/>
				</g>
				<g>
					<path class="st205" d="M45.62,105.336c-0.518,0-1.022-0.269-1.3-0.75c-0.415-0.717-0.17-1.635,0.547-2.049l1.357-0.785
						c0.717-0.414,1.635-0.171,2.049,0.547c0.415,0.717,0.17,1.635-0.547,2.049l-1.357,0.785
						C46.133,105.271,45.875,105.336,45.62,105.336z"/>
				</g>
			</g>
			<g>
				<g>
					<path class="st205" d="M91.908,99.243c-0.129,0-0.26-0.017-0.391-0.052l-1.516-0.408c-0.8-0.215-1.274-1.039-1.058-1.838
						c0.215-0.801,1.039-1.273,1.838-1.058l1.516,0.408c0.8,0.215,1.274,1.039,1.058,1.838
						C93.175,98.802,92.57,99.243,91.908,99.243z"/>
				</g>
				<g>
					<path class="st205" d="M44.609,86.568c-0.129,0-0.26-0.017-0.39-0.052l-1.516-0.407c-0.8-0.215-1.274-1.038-1.06-1.838
						c0.215-0.8,1.038-1.277,1.838-1.06l1.516,0.407c0.8,0.215,1.274,1.038,1.06,1.838C45.877,86.126,45.271,86.568,44.609,86.568z"
						/>
				</g>
			</g>
		</g>
		<g>
			<g>
				<g>
					<path class="st205" d="M46.976,80.853c-0.255,0-0.513-0.065-0.75-0.202l-1.359-0.786c-0.717-0.415-0.962-1.332-0.547-2.049
						c0.415-0.717,1.332-0.961,2.049-0.547l1.359,0.786c0.717,0.415,0.962,1.332,0.547,2.049
						C47.998,80.584,47.494,80.853,46.976,80.853z"/>
				</g>
				<g>
					<path class="st205" d="M89.38,105.336c-0.255,0-0.513-0.065-0.75-0.202l-1.357-0.785c-0.717-0.415-0.962-1.332-0.547-2.049
						c0.415-0.717,1.333-0.961,2.049-0.547l1.357,0.785c0.717,0.415,0.962,1.332,0.547,2.049
						C90.402,105.067,89.898,105.336,89.38,105.336z"/>
				</g>
			</g>
			<g>
				<g>
					<path class="st205" d="M61.365,69.811c-0.663,0-1.269-0.442-1.448-1.113l-0.406-1.518c-0.214-0.8,0.261-1.623,1.062-1.837
						c0.802-0.213,1.623,0.261,1.837,1.062l0.406,1.518c0.214,0.8-0.261,1.623-1.062,1.837
						C61.624,69.794,61.494,69.811,61.365,69.811z"/>
				</g>
				<g>
					<path class="st205" d="M74.039,117.109c-0.662,0-1.268-0.442-1.448-1.112l-0.406-1.515c-0.215-0.8,0.26-1.623,1.06-1.837
						c0.802-0.216,1.623,0.26,1.837,1.06l0.406,1.515c0.215,0.8-0.26,1.623-1.06,1.837
						C74.298,117.092,74.168,117.109,74.039,117.109z"/>
				</g>
			</g>
			<g>
				<g>
					<path class="st205" d="M79.347,72.177c-0.255,0-0.513-0.065-0.75-0.202c-0.717-0.415-0.962-1.332-0.547-2.049l0.785-1.357
						c0.415-0.717,1.333-0.961,2.049-0.547c0.717,0.415,0.962,1.332,0.547,2.049l-0.785,1.357
						C80.369,71.908,79.865,72.177,79.347,72.177z"/>
				</g>
				<g>
					<path class="st205" d="M54.865,114.584c-0.255,0-0.513-0.065-0.75-0.202c-0.717-0.415-0.962-1.332-0.547-2.049l0.785-1.357
						c0.415-0.717,1.333-0.961,2.049-0.547c0.717,0.415,0.962,1.332,0.547,2.049l-0.785,1.357
						C55.887,114.315,55.383,114.584,54.865,114.584z"/>
				</g>
			</g>
			<g>
				<g>
					<path class="st205" d="M90.391,86.568c-0.662,0-1.268-0.441-1.448-1.111c-0.215-0.8,0.259-1.623,1.06-1.838l1.516-0.407
						c0.8-0.212,1.623,0.26,1.838,1.06s-0.259,1.623-1.06,1.838l-1.516,0.407C90.65,86.551,90.52,86.568,90.391,86.568z"/>
				</g>
				<g>
					<path class="st205" d="M43.092,99.243c-0.662,0-1.267-0.441-1.447-1.11c-0.216-0.8,0.258-1.623,1.058-1.838l1.516-0.408
						c0.805-0.213,1.624,0.258,1.838,1.058c0.216,0.8-0.258,1.623-1.058,1.838l-1.516,0.408
						C43.352,99.226,43.221,99.243,43.092,99.243z"/>
				</g>
			</g>
		</g>
		<g>
			<path class="st205" d="M78.094,111.129c-0.323,0-0.648-0.104-0.922-0.318c-0.653-0.51-0.769-1.453-0.259-2.105
				c3.953-5.062,5.014-9.845,3.069-13.832c-2.185-4.478-7.467-6.862-10.441-6.862c-1.252,0-2.287,0.096-3.267,0.567
				c-0.372,0.179-0.803,0.197-1.189,0.047c-0.386-0.148-0.693-0.45-0.85-0.833c-0.64-1.569-1.562-2.963-2.743-4.142
				c-1.553-1.554-3.491-2.671-5.595-3.247c0.569,2.107,1.673,4.014,3.251,5.592c1.019,1.02,2.199,1.852,3.507,2.473
				c0.442,0.21,0.754,0.624,0.835,1.108c0.081,0.483-0.08,0.976-0.43,1.319c-1.706,1.67-3.097,3.84-4.857,6.586
				c-1.581,2.466-3.373,5.261-5.868,8.424c-0.513,0.651-1.457,0.762-2.106,0.249c-0.651-0.513-0.762-1.456-0.249-2.106
				c2.404-3.048,4.154-5.778,5.697-8.186c1.361-2.123,2.581-4.025,3.944-5.654c-0.936-0.602-1.805-1.301-2.595-2.092
				c-2.526-2.525-4.12-5.875-4.488-9.429c-0.046-0.449,0.112-0.896,0.432-1.215s0.769-0.481,1.215-0.432
				c3.556,0.369,6.904,1.962,9.428,4.489c1.125,1.124,2.062,2.404,2.794,3.818c1.08-0.286,2.133-0.336,3.133-0.336
				c4.313,0,10.562,3.268,13.138,8.547c1.731,3.548,2.547,9.377-3.401,16.994C78.981,110.931,78.54,111.129,78.094,111.129z"/>
		</g>
		<g>
			<path class="st205" d="M60.095,93.404c-0.051,0-0.103-0.002-0.154-0.008c-2.935-0.304-5.698-1.62-7.782-3.706
				c-2.085-2.083-3.401-4.847-3.705-7.781c-0.046-0.449,0.112-0.896,0.432-1.215c0.319-0.32,0.769-0.484,1.216-0.431
				c2.463,0.256,4.786,1.211,6.717,2.763c0.143,0.114,0.263,0.254,0.355,0.412c0.549,0.938,1.213,1.798,1.973,2.557
				c0.209,0.211,0.427,0.399,0.642,0.586c0.137,0.12,0.252,0.264,0.338,0.425c0.797,1.492,1.288,3.088,1.46,4.743
				c0.046,0.449-0.112,0.896-0.431,1.215C60.873,93.248,60.491,93.404,60.095,93.404z M51.892,83.702
				c0.483,1.449,1.298,2.779,2.388,3.868c1.107,1.108,2.42,1.918,3.868,2.395c-0.149-0.445-0.332-0.883-0.546-1.31
				c-0.197-0.174-0.393-0.353-0.581-0.542c-0.868-0.867-1.638-1.845-2.286-2.907C53.872,84.548,52.912,84.042,51.892,83.702z"/>
		</g>
		<g>
			<path class="st205" d="M76.446,96.016c-0.324,0-0.624-0.103-0.869-0.277c-0.245,0.175-0.545,0.277-0.869,0.277
				c-0.829,0-1.5-0.671-1.5-1.5c0-1.306,1.062-2.369,2.367-2.369c1.308,0,2.371,1.063,2.371,2.369
				C77.946,95.344,77.275,96.016,76.446,96.016z"/>
		</g>
		<g>
			<path class="st15" d="M76.907,99.315c0,1.29-1.045,2.335-2.334,2.335s-2.334-1.045-2.334-2.335c0-1.286,1.045-2.332,2.334-2.332
				S76.907,98.029,76.907,99.315z"/>
		</g>
		<g>
			<path class="st144" d="M74.573,96.983c1.289,0,2.334,1.046,2.334,2.332c0,1.29-1.045,2.335-2.334,2.335"/>
		</g>
		<g>
			<path class="st205" d="M81.958,96.444c-0.506,0-1-0.256-1.283-0.72c-0.216-0.356-0.268-0.766-0.175-1.141
				c-0.376-0.09-0.717-0.324-0.934-0.681c-0.43-0.708-0.204-1.631,0.504-2.061c0.585-0.356,1.273-0.462,1.939-0.299
				c0.666,0.163,1.229,0.575,1.584,1.16c0.355,0.583,0.463,1.272,0.301,1.938c-0.162,0.665-0.574,1.227-1.158,1.583
				C82.493,96.374,82.223,96.444,81.958,96.444z"/>
		</g>
		<g>
			<path class="st205" d="M54.796,83.374c-0.109,0-0.218-0.012-0.327-0.036c-0.501-0.112-0.91-0.472-1.084-0.955
				c-0.432-1.199-0.717-2.442-0.847-3.695c-0.046-0.449,0.112-0.896,0.432-1.215c0.319-0.32,0.763-0.48,1.215-0.432
				c1.251,0.129,2.495,0.415,3.696,0.848c0.483,0.174,0.843,0.583,0.955,1.084c0.112,0.501-0.041,1.025-0.404,1.388l-2.576,2.574
				C55.572,83.219,55.189,83.374,54.796,83.374z"/>
		</g>
		<g>
			<path class="st205" d="M54.796,81.874l2.576-2.574c-1.086-0.392-2.207-0.649-3.342-0.767
				C54.147,79.668,54.405,80.791,54.796,81.874z"/>
		</g>
		<g>
			<path class="st205" d="M50.808,86.549c-0.095,0-0.19-0.009-0.285-0.027c-0.489-0.095-0.899-0.426-1.095-0.884
				c-0.514-1.205-0.841-2.458-0.973-3.726c-0.047-0.449,0.111-0.896,0.431-1.216s0.764-0.478,1.216-0.432
				c1.282,0.134,2.538,0.462,3.731,0.976c0.457,0.196,0.786,0.607,0.88,1.095s-0.061,0.991-0.413,1.343l-2.432,2.432
				C51.584,86.394,51.202,86.549,50.808,86.549z"/>
		</g>
		<g>
			<path class="st205" d="M49.946,81.756c0.117,1.125,0.41,2.235,0.861,3.293l2.432-2.432
				C52.183,82.162,51.073,81.873,49.946,81.756z"/>
		</g>
		<g>
			<path class="st205" d="M60.799,102.125c-0.547,0-1.074-0.301-1.338-0.821c-0.105-0.202-1.031-1.865-2.694-1.387
				c-0.795,0.224-1.627-0.234-1.854-1.03s0.234-1.627,1.03-1.854c3.279-0.935,5.488,1.502,6.198,2.923
				c0.37,0.741,0.069,1.642-0.672,2.012C61.253,102.074,61.024,102.125,60.799,102.125z"/>
		</g>
		<g>
			<path class="st205" d="M58.389,106.477c-0.547,0-1.074-0.301-1.338-0.821c-0.105-0.201-1.03-1.859-2.694-1.389
				c-0.795,0.227-1.627-0.233-1.854-1.031c-0.228-0.796,0.234-1.626,1.031-1.854c3.281-0.937,5.488,1.503,6.197,2.925
				c0.37,0.741,0.069,1.642-0.672,2.012C58.842,106.426,58.614,106.477,58.389,106.477z"/>
		</g>
	</g>
</g>
</svg>
