<?xml version="1.0" encoding="utf-8"?>
<!-- Generator: Adobe Illustrator 16.0.0, SVG Export Plug-In . SVG Version: 6.00 Build 0)  -->
<!DOCTYPE svg PUBLIC "-//W3C//DTD SVG 1.1//EN" "http://www.w3.org/Graphics/SVG/1.1/DTD/svg11.dtd">
<svg version="1.1" id="Layer_1" xmlns="http://www.w3.org/2000/svg" xmlns:xlink="http://www.w3.org/1999/xlink" x="0px" y="0px"
	 width="135px" height="135px" viewBox="0 0 135 135" style="enable-background:new 0 0 135 135;" xml:space="preserve">
<style type="text/css">
<![CDATA[
	.st0{fill:#465652;}
	.st1{fill:#AAB9BA;}
	.st2{fill:#47C67B;}
	.st3{fill:#AAC8D1;}
	.st4{fill:none;stroke:#E83834;stroke-width:6;stroke-linecap:round;stroke-linejoin:round;stroke-miterlimit:10;}
	.st5{fill:#7BC67B;}
	.st6{fill:#7BC7FF;}
	.st7{fill:#7C34C1;}
	.st8{fill:#7C8D96;}
	.st9{fill:#AD2707;}
	.st10{fill:#ADB8BC;}
	.st11{fill:#107510;}
	.st12{fill:#7FE5D8;}
	.st13{fill:#AF4AD1;}
	.st14{fill:#E02B7E;}
	.st15{fill:#E04038;}
	.st16{fill:#AFD7DD;}
	.st17{fill:#E0A010;}
	.st18{fill:#E0D5A4;}
	.st19{fill:#12B2B2;}
	.st20{fill:#12D66B;}
	.st21{fill:#E1A9FF;}
	.st22{fill:#1362A8;}
	.st23{fill:#E2378D;}
	.st24{fill:#E29C37;}
	.st25{fill:#E2B90E;}
	.st26{fill:#E2BF91;}
	.st27{fill:#E2CBAA;}
	.st28{fill:#14A594;}
	.st29{fill:#E4E9ED;}
	.st30{fill:#4A5D60;}
	.st31{fill:#E5B076;}
	.st32{fill:#E5B1C4;}
	.st33{fill:#E5E4C3;}
	.st34{fill:#4B6466;}
	.st35{fill:#E6FF2E;}
	.st36{fill:#18AA67;}
	.st37{fill:#E86207;}
	.st38{fill:#E8A113;}
	.st39{fill:#E8B5A6;}
	.st40{fill:#E8E8ED;}
	.st41{fill:#4E5154;}
	.st42{fill:#E9F1F4;}
	.st43{fill:#4F4B48;}
	.st44{fill:#4F74E8;}
	.st45{fill:#808E93;}
	.st46{fill:#80949B;}
	.st47{fill:#80EDAC;}
	.st48{fill:#B122E0;}
	.st49{fill:#B2C4CC;}
	.st50{fill:#83D839;}
	.st51{fill:#B3C6C6;}
	.st52{fill:none;stroke:#33363A;stroke-width:3;stroke-linecap:round;stroke-linejoin:round;stroke-miterlimit:10;}
	.st53{fill:#1A8E1C;}
	.st54{fill:#1A93D6;}
	.st55{fill:#B50B0B;}
	.st56{fill:#1AD88F;}
	.st57{fill:#B5DAF4;}
	.st58{fill:#EA7B1F;}
	.st59{fill:#EA81BD;}
	.st60{fill:#87B8D6;}
	.st61{fill:#87C3F4;}
	.st62{fill:#EAC79D;}
	.st63{fill:#EADF11;}
	.st64{fill:#EAE4C5;}
	.st65{fill:#B78094;}
	.st66{fill:#8844D8;}
	.st67{fill:#EBF4F7;}
	.st68{fill:#893015;}
	.st69{fill:#89410B;}
	.st70{fill:#899BA3;}
	.st71{fill:#EDE3B9;}
	.st72{enable-background:new    ;}
	.st73{fill:#50FF9F;}
	.st74{fill:#EEDCF4;}
	.st75{fill:#EFA37D;}
	.st76{fill:#EFA3CC;}
	.st77{fill:#EFC99A;}
	.st78{fill:#54AF79;}
	.st79{fill:#BA503A;}
	.st80{fill:#BA8663;}
	.st81{fill:#8B4FE0;}
	.st82{fill:#58ED9B;}
	.st83{fill:#BC7DFF;}
	.st84{fill:#8D9AA3;}
	.st85{fill:#BCCAD3;}
	.st86{fill:#8DE4FF;}
	.st87{fill:#20B518;}
	.st88{fill:#BF44F2;}
	.st89{fill:#21CEA1;}
	.st90{fill:#BFDAE0;}
	.st91{fill:#F0FBFC;}
	.st92{fill:#F2D9A7;}
	.st93{fill:#F2EAC9;}
	.st94{fill:#24D1AF;}
	.st95{fill:#25931C;}
	.st96{fill:#F4C4B3;}
	.st97{fill:#F4D3A2;}
	.st98{fill:#F4D647;}
	.st99{fill:#F4D7B8;}
	.st100{fill:#F4EC8E;}
	.st101{fill:#5B524D;}
	.st102{fill:#F77819;}
	.st103{fill:#F79AE1;}
	.st104{fill:#5E707A;}
	.st105{fill:#F93585;}
	.st106{fill:#F95D5D;}
	.st107{fill:#F9C19B;}
	.st108{fill:#F9CB58;}
	.st109{fill:#F9D2B2;}
	.st110{fill:#F9F07D;}
	.st111{fill:#F9F1D2;}
	.st112{fill:#F9F4B7;}
	.st113{fill:#F9F9E4;}
	.st114{fill:#5F1DAA;}
	.st115{fill:#5F9AD6;}
	.st116{fill:#C0C0C4;}
	.st117{fill:#91EA57;}
	.st118{fill:#C12727;}
	.st119{fill:#C191A0;}
	.st120{fill:#923BB7;}
	.st121{fill:#93A0A3;}
	.st122{fill:#93F9EA;}
	.st123{fill:#93FF5A;}
	.st124{fill:#C4833D;}
	.st125{fill:#95A2A5;}
	.st126{fill:#965514;}
	.st127{fill:#96562C;}
	.st128{fill:#2AF42F;}
	.st129{fill:#C5D7DD;}
	.st130{fill:#C68510;}
	.st131{fill:#C6A86D;}
	.st132{fill:#C6BB8D;}
	.st133{fill:#2C9DCE;}
	.st134{fill:#FBFCF2;}
	.st135{fill:#FC70B0;}
	.st136{fill:#FCE6C8;}
	.st137{fill:#FCF7E3;}
	.st138{fill:#C90D6B;}
	.st139{fill:#FDFEFF;}
	.st140{fill:#FDFFDC;}
	.st141{fill:#FF1A1A;}
	.st142{fill:#FF5252;}
	.st143{fill:#FF5B00;}
	.st144{fill:#FF6155;}
	.st145{fill:#FF630D;}
	.st146{fill:#FF6666;}
	.st147{fill:#FF7676;}
	.st148{fill:#FF7900;}
	.st149{fill:#FF860D;}
	.st150{fill:#FF8B00;}
	.st151{fill:#FF8F8F;}
	.st152{fill:#FF900B;}
	.st153{fill:#FF908A;}
	.st154{fill:#FF960B;}
	.st155{fill:#FF9C0D;}
	.st156{fill:#FFA9D4;}
	.st157{fill:#FFAA00;}
	.st158{fill:#FFAD40;}
	.st159{fill:#FFAF10;}
	.st160{fill:#FFB000;}
	.st161{fill:#FFBE08;}
	.st162{fill:#FFBF31;}
	.st163{fill:#FFC200;}
	.st164{fill:#FFCAE8;}
	.st165{fill:#FFCCF5;}
	.st166{fill:#FFD00B;}
	.st167{fill:#FFD039;}
	.st168{fill:#FFD400;}
	.st169{fill:#FFD833;}
	.st170{fill:#FFDB80;}
	.st171{fill:#FFDDD2;}
	.st172{fill:#FFE6D4;}
	.st173{fill:#FFE6EB;}
	.st174{fill:#FFE98D;}
	.st175{fill:#FFECD2;}
	.st176{fill:#FFF1D9;}
	.st177{fill:#FFF24D;}
	.st178{fill:#FFF3C2;}
	.st179{fill:#FFF4C7;}
	.st180{fill:#FFF800;}
	.st181{fill:#FFF80D;}
	.st182{fill:#FFF9DE;}
	.st183{fill:#FFFBD7;}
	.st184{fill:#FFFBEB;}
	.st185{fill:#FFFCC0;}
	.st186{fill:#FFFCDC;}
	.st187{fill:#FFFFFA;}
	.st188{fill:#FFFFFF;}
	.st189{fill:#63797F;}
	.st190{fill:#65E529;}
	.st191{fill:#66310E;}
	.st192{fill:#663C17;}
	.st193{fill:#9A5AE5;}
	.st194{fill:#CA30EF;}
	.st195{fill:#6892FC;}
	.st196{fill:#9CFFC4;}
	.st197{fill:#CC4306;}
	.st198{fill:#CC549E;}
	.st199{fill:#9E3256;}
	.st200{fill:#CDFFBB;}
	.st201{fill:#CE86AF;}
	.st202{fill:#CED9DD;}
	
		.st203{fill:none;stroke:#33363A;stroke-width:3;stroke-linecap:round;stroke-linejoin:round;stroke-miterlimit:10;stroke-dasharray:6;}
	.st204{fill:#CFE1E2;}
	.st205{fill:#33363A;}
	.st206{fill:#34C166;}
	.st207{fill:#364B5B;}
	.st208{fill:#3662CE;}
	.st209{fill:#36C6FF;}
	.st210{fill:#6ADB9A;}
	.st211{fill:#6D5C4D;}
	.st212{fill:#6EBDF9;}
	.st213{fill:#0031FF;}
	.st214{fill:#0062FF;}
	.st215{fill:#0068FF;}
	.st216{fill:#0086FF;}
	.st217{fill:#009BE8;}
	.st218{fill:#00AAFF;}
	.st219{fill:#D271FF;}
	.st220{fill:#D363A9;}
	.st221{fill:#D3964C;}
	.st222{fill:#D3DFE2;}
	.st223{fill:#D3E0E2;}
	.st224{fill:#D3EFF4;}
	.st225{fill:#063B66;}
	.st226{fill:#D60909;}
	.st227{fill:#D61D1D;}
	.st228{fill:#D7F0FF;}
	.st229{fill:#09B285;}
	.st230{fill:#D8D593;}
	.st231{fill:#D8E2EA;}
	.st232{fill:#D8E5EA;}
	.st233{fill:#3E5054;}
	.st234{fill:#D988FF;}
	.st235{fill:#D9E7E8;}
	.st236{fill:#702252;}
	.st237{fill:#70D3E0;}
	.st238{fill:#A02FF2;}
	.st239{fill:#A2F255;}
	.st240{fill:#A35616;}
	.st241{fill:#A3CCCC;}
	.st242{fill:#0A6ADD;}
	.st243{fill:#A5145D;}
	.st244{fill:#A57555;}
	.st245{fill:#77D6FC;}
	.st246{fill:#7815CE;}
	.st247{fill:#A7BBC1;}
	.st248{fill:#DBD279;}
	.st249{fill:#0D5C9E;}
	.st250{fill:#A83C11;}
	.st251{fill:#A8633D;}
	.st252{fill:#A8A3E5;}
	.st253{fill:#DCE6EA;}
	.st254{fill:#DCE7EA;}
	.st255{fill:#A962E8;}
	.st256{fill:#DD2466;}
	.st257{fill:#DDC38A;}
	.st258{fill:#DDD2B1;}
	.st259{fill:#DFE7E8;}
	.st260{fill:#42B1E8;}
	.st261{fill:#436377;}
	.st262{fill:#43B530;}
]]>
</style>
<g>
	<g>
		<g>
			<g>
				<path class="st135" d="M125.977,69.238c0,2.584-2.096,4.68-4.679,4.68H92.06c-2.584,0-4.679-2.096-4.679-4.68v-2.033
					c0-2.584,2.095-4.679,4.679-4.679h29.238c2.583,0,4.679,2.095,4.679,4.679V69.238z"/>
			</g>
			<g>
				<path class="st156" d="M92.06,62.526c-1.934,0-3.593,1.175-4.306,2.849c0.713,1.673,2.372,2.846,4.306,2.846h29.238
					c1.934,0,3.593-1.173,4.305-2.846c-0.712-1.674-2.371-2.849-4.305-2.849H92.06z"/>
			</g>
			<g>
				<path class="st205" d="M121.298,75.418H92.06c-3.407,0-6.179-2.772-6.179-6.18v-2.033c0-3.407,2.771-6.179,6.179-6.179h29.238
					c3.407,0,6.179,2.772,6.179,6.179v2.033C127.477,72.646,124.705,75.418,121.298,75.418z M92.06,64.026
					c-1.753,0-3.179,1.426-3.179,3.179v2.033c0,1.753,1.426,3.18,3.179,3.18h29.238c1.753,0,3.179-1.426,3.179-3.18v-2.033
					c0-1.753-1.426-3.179-3.179-3.179H92.06z"/>
			</g>
		</g>
		<g>
			<g>
				<path class="st135" d="M120.129,80.627c0,2.582-2.096,4.678-4.679,4.678H86.212c-2.584,0-4.679-2.096-4.679-4.678v-2.032
					c0-2.585,2.095-4.677,4.679-4.677h29.238c2.583,0,4.679,2.092,4.679,4.677V80.627z"/>
			</g>
			<g>
				<path class="st156" d="M86.212,73.918c-1.934,0-3.593,1.172-4.306,2.845c0.713,1.673,2.372,2.849,4.306,2.849h29.238
					c1.934,0,3.593-1.176,4.305-2.849c-0.712-1.673-2.371-2.845-4.305-2.845H86.212z"/>
			</g>
			<g>
				<path class="st205" d="M115.45,86.805H86.212c-3.407,0-6.179-2.771-6.179-6.178v-2.032c0-3.406,2.771-6.177,6.179-6.177h29.238
					c3.407,0,6.179,2.771,6.179,6.177v2.032C121.629,84.033,118.857,86.805,115.45,86.805z M86.212,75.418
					c-1.753,0-3.179,1.425-3.179,3.177v2.032c0,1.752,1.426,3.178,3.179,3.178h29.238c1.753,0,3.179-1.425,3.179-3.178v-2.032
					c0-1.751-1.426-3.177-3.179-3.177H86.212z"/>
			</g>
		</g>
		<g>
			<g>
				<path class="st135" d="M114.281,92.018c0,2.582-2.096,4.676-4.679,4.676H80.364c-2.584,0-4.679-2.094-4.679-4.676v-2.034
					c0-2.583,2.095-4.679,4.679-4.679h29.238c2.583,0,4.679,2.096,4.679,4.679V92.018z"/>
			</g>
			<g>
				<path class="st156" d="M80.364,85.305c-1.934,0-3.593,1.174-4.306,2.849C76.771,89.826,78.431,91,80.364,91h29.238
					c1.934,0,3.593-1.174,4.305-2.847c-0.712-1.675-2.371-2.849-4.305-2.849H80.364z"/>
			</g>
			<g>
				<path class="st205" d="M109.603,98.193H80.364c-3.407,0-6.179-2.771-6.179-6.176v-2.034c0-3.407,2.771-6.179,6.179-6.179h29.238
					c3.407,0,6.179,2.772,6.179,6.179v2.034C115.781,95.423,113.01,98.193,109.603,98.193z M80.364,86.805
					c-1.753,0-3.179,1.426-3.179,3.179v2.034c0,1.751,1.426,3.176,3.179,3.176h29.238c1.753,0,3.179-1.425,3.179-3.176v-2.034
					c0-1.753-1.426-3.179-3.179-3.179H80.364z"/>
			</g>
		</g>
	</g>
	<g>
		<g>
			<path class="st135" d="M129.408,41.775c-0.906-2.105-2.978-3.469-5.27-3.469H10.86c-3.168,0-5.735,2.568-5.735,5.736v46.916
				c0,3.166,2.567,5.734,5.735,5.734h68.912c1.576,0,3.083-0.648,4.167-1.795l44.367-46.916
				C129.881,46.32,130.313,43.877,129.408,41.775z"/>
		</g>
		<g>
			<path class="st23" d="M10.86,96.693h68.912c1.576,0,3.083-0.648,4.167-1.795l43.252-45.736c-0.896-0.564-1.947-0.887-3.053-0.887
				H10.86c-3.168,0-5.735,2.566-5.735,5.735v36.948C5.125,94.125,7.692,96.693,10.86,96.693z"/>
		</g>
		<g>
			<path class="st205" d="M79.772,98.193H10.86c-3.989,0-7.235-3.245-7.235-7.234V44.043c0-3.99,3.246-7.236,7.235-7.236h113.278
				c2.894,0,5.503,1.718,6.647,4.375c1.145,2.657,0.599,5.731-1.391,7.832L85.029,95.929C83.669,97.368,81.753,98.193,79.772,98.193
				z M10.86,39.807c-2.335,0-4.235,1.9-4.235,4.236v46.916c0,2.335,1.9,4.234,4.235,4.234h68.912c1.159,0,2.28-0.483,3.077-1.326
				l44.367-46.916c1.164-1.229,1.483-3.028,0.813-4.583c-0.67-1.557-2.197-2.562-3.892-2.562H10.86z"/>
		</g>
	</g>
	<g>
		<g>
			<path class="st246" d="M99.209,51.654c-0.559-1.299-1.834-2.14-3.245-2.14H26.172c-1.951,0-3.534,1.584-3.534,3.535v28.906
				c0,1.95,1.583,3.53,3.534,3.53h42.457c0.971,0,1.9-0.398,2.566-1.104l27.336-28.905C99.5,54.453,99.768,52.947,99.209,51.654z"/>
		</g>
		<g>
			<path class="st238" d="M26.172,85.486h42.457c0.971,0,1.9-0.398,2.566-1.104l26.648-28.179c-0.552-0.348-1.199-0.546-1.88-0.546
				H26.172c-1.951,0-3.534,1.581-3.534,3.532v22.767C22.638,83.906,24.221,85.486,26.172,85.486z"/>
		</g>
		<g>
			<path class="st205" d="M68.629,86.986H26.172c-2.775,0-5.034-2.256-5.034-5.03V53.05c0-2.776,2.259-5.035,5.034-5.035h69.792
				c2.013,0,3.827,1.196,4.623,3.047c0.797,1.845,0.418,3.983-0.967,5.446L72.285,85.413C71.342,86.412,70.009,86.986,68.629,86.986
				z M26.172,51.015c-1.122,0-2.034,0.913-2.034,2.035v28.906c0,1.12,0.912,2.03,2.034,2.03h42.457c0.558,0,1.096-0.231,1.476-0.634
				l27.337-28.907c0.559-0.59,0.712-1.453,0.391-2.197c-0.323-0.75-1.056-1.234-1.868-1.234H26.172z"/>
		</g>
	</g>
	<g>
		<path class="st246" d="M48.202,73.271c0,2.085-1.692,3.777-3.778,3.777h-8.816c-2.087,0-3.779-1.692-3.779-3.777v-8.817
			c0-2.087,1.692-3.777,3.779-3.777h8.816c2.086,0,3.778,1.69,3.778,3.777V73.271z"/>
	</g>
	<g>
		<path class="st205" d="M44.424,78.549h-8.816c-2.911,0-5.279-2.367-5.279-5.277v-8.817c0-2.91,2.368-5.277,5.279-5.277h8.816
			c2.91,0,5.278,2.367,5.278,5.277v8.817C49.702,76.182,47.334,78.549,44.424,78.549z M35.607,62.177
			c-1.257,0-2.279,1.021-2.279,2.277v8.817c0,1.256,1.022,2.277,2.279,2.277h8.816c1.256,0,2.278-1.021,2.278-2.277v-8.817
			c0-1.256-1.022-2.277-2.278-2.277H35.607z"/>
	</g>
	<g>
		<path class="st205" d="M53.93,65.174h-5.728c-0.828,0-1.5-0.671-1.5-1.5s0.672-1.5,1.5-1.5h5.106l5.871-5.873
			c0.281-0.281,0.663-0.439,1.061-0.439h15.445c0.828,0,1.5,0.671,1.5,1.5s-0.672,1.5-1.5,1.5H60.861l-5.871,5.873
			C54.709,65.016,54.327,65.174,53.93,65.174z"/>
	</g>
	<g>
		<path class="st205" d="M55.398,72.996h-6.904c-0.828,0-1.5-0.671-1.5-1.5s0.672-1.5,1.5-1.5h6.283l7.172-7.168
			c0.281-0.281,0.663-0.439,1.061-0.439h18.621c0.828,0,1.5,0.671,1.5,1.5s-0.672,1.5-1.5,1.5h-18l-7.172,7.168
			C56.178,72.838,55.796,72.996,55.398,72.996z"/>
	</g>
	<g>
		<path class="st205" d="M72.275,72.07h-5.459c-0.828,0-1.5-0.671-1.5-1.5s0.672-1.5,1.5-1.5h5.459c0.828,0,1.5,0.671,1.5,1.5
			S73.104,72.07,72.275,72.07z"/>
	</g>
	<g>
		<path class="st205" d="M67.791,77.428h-5.457c-0.828,0-1.5-0.671-1.5-1.5s0.672-1.5,1.5-1.5h5.457c0.828,0,1.5,0.671,1.5,1.5
			S68.619,77.428,67.791,77.428z"/>
	</g>
</g>
</svg>
