<svg xmlns="http://www.w3.org/2000/svg" id="Layer_1" width="288" height="288" x="0" y="0" enable-background="new 0 0 135 135" version="1.1" viewBox="0 0 135 135" xml:space="preserve">
<path fill="#3ed490" d="M125.977,69.238c0,2.584-2.096,4.68-4.679,4.68H92.06c-2.584,0-4.679-2.096-4.679-4.68v-2.033      c0-2.584,2.095-4.679,4.679-4.679h29.238c2.583,0,4.679,2.095,4.679,4.679V69.238z" class="colorfc70b0 svgShape">
					</path>
					
					<path fill="#53ff69" d="M92.06,62.526c-1.934,0-3.593,1.175-4.306,2.849c0.713,1.673,2.372,2.846,4.306,2.846h29.238      c1.934,0,3.593-1.173,4.305-2.846c-0.712-1.674-2.371-2.849-4.305-2.849H92.06z" class="colorffa9d4 svgShape">
					</path>
					
					<path fill="#33363a" d="M121.298,75.418H92.06c-3.407,0-6.179-2.772-6.179-6.18v-2.033c0-3.407,2.771-6.179,6.179-6.179h29.238      c3.407,0,6.179,2.772,6.179,6.179v2.033C127.477,72.646,124.705,75.418,121.298,75.418z M92.06,64.026      c-1.753,0-3.179,1.426-3.179,3.179v2.033c0,1.753,1.426,3.18,3.179,3.18h29.238c1.753,0,3.179-1.426,3.179-3.18v-2.033      c0-1.753-1.426-3.179-3.179-3.179H92.06z" class="color33363a svgShape">
					</path>
					
					<path fill="#3ed490" d="M120.129,80.627c0,2.582-2.096,4.678-4.679,4.678H86.212c-2.584,0-4.679-2.096-4.679-4.678v-2.032      c0-2.585,2.095-4.677,4.679-4.677h29.238c2.583,0,4.679,2.092,4.679,4.677V80.627z" class="colorfc70b0 svgShape">
					</path>
					
					<path fill="#53ff69" d="M86.212,73.918c-1.934,0-3.593,1.172-4.306,2.845c0.713,1.673,2.372,2.849,4.306,2.849h29.238      c1.934,0,3.593-1.176,4.305-2.849c-0.712-1.673-2.371-2.845-4.305-2.845H86.212z" class="colorffa9d4 svgShape">
					</path>
					
					<path fill="#33363a" d="M115.45,86.805H86.212c-3.407,0-6.179-2.771-6.179-6.178v-2.032c0-3.406,2.771-6.177,6.179-6.177h29.238      c3.407,0,6.179,2.771,6.179,6.177v2.032C121.629,84.033,118.857,86.805,115.45,86.805z M86.212,75.418      c-1.753,0-3.179,1.425-3.179,3.177v2.032c0,1.752,1.426,3.178,3.179,3.178h29.238c1.753,0,3.179-1.425,3.179-3.178v-2.032      c0-1.751-1.426-3.177-3.179-3.177H86.212z" class="color33363a svgShape">
					</path>
					
					<path fill="#3ed490" d="M114.281,92.018c0,2.582-2.096,4.676-4.679,4.676H80.364c-2.584,0-4.679-2.094-4.679-4.676v-2.034      c0-2.583,2.095-4.679,4.679-4.679h29.238c2.583,0,4.679,2.096,4.679,4.679V92.018z" class="colorfc70b0 svgShape">
					</path>
					
					<path fill="#53ff69" d="M80.364,85.305c-1.934,0-3.593,1.174-4.306,2.849C76.771,89.826,78.431,91,80.364,91h29.238      c1.934,0,3.593-1.174,4.305-2.847c-0.712-1.675-2.371-2.849-4.305-2.849H80.364z" class="colorffa9d4 svgShape">
					</path>
					
					<path fill="#33363a" d="M109.603,98.193H80.364c-3.407,0-6.179-2.771-6.179-6.176v-2.034c0-3.407,2.771-6.179,6.179-6.179h29.238      c3.407,0,6.179,2.772,6.179,6.179v2.034C115.781,95.423,113.01,98.193,109.603,98.193z M80.364,86.805      c-1.753,0-3.179,1.426-3.179,3.179v2.034c0,1.751,1.426,3.176,3.179,3.176h29.238c1.753,0,3.179-1.425,3.179-3.176v-2.034      c0-1.753-1.426-3.179-3.179-3.179H80.364z" class="color33363a svgShape">
					</path>
					
				<g fill="#000000" class="color000 svgShape">
				<path fill="#3ed490" d="M129.408,41.775c-0.906-2.105-2.978-3.469-5.27-3.469H10.86c-3.168,0-5.735,2.568-5.735,5.736v46.916     c0,3.166,2.567,5.734,5.735,5.734h68.912c1.576,0,3.083-0.648,4.167-1.795l44.367-46.916     C129.881,46.32,130.313,43.877,129.408,41.775z" class="colorfc70b0 svgShape">
				</path>
				
				<path fill="#36d62a" d="M10.86,96.693h68.912c1.576,0,3.083-0.648,4.167-1.795l43.252-45.736c-0.896-0.564-1.947-0.887-3.053-0.887     H10.86c-3.168,0-5.735,2.566-5.735,5.735v36.948C5.125,94.125,7.692,96.693,10.86,96.693z" class="colore2378d svgShape"/>
				
				<path fill="#33363a" d="M79.772,98.193H10.86c-3.989,0-7.235-3.245-7.235-7.234V44.043c0-3.99,3.246-7.236,7.235-7.236h113.278     c2.894,0,5.503,1.718,6.647,4.375c1.145,2.657,0.599,5.731-1.391,7.832L85.029,95.929C83.669,97.368,81.753,98.193,79.772,98.193     z M10.86,39.807c-2.335,0-4.235,1.9-4.235,4.236v46.916c0,2.335,1.9,4.234,4.235,4.234h68.912c1.159,0,2.28-0.483,3.077-1.326     l44.367-46.916c1.164-1.229,1.483-3.028,0.813-4.583c-0.67-1.557-2.197-2.562-3.892-2.562H10.86z" class="color33363a svgShape"/>
				</g>
				
				<g fill="#000000" class="color000 svgShape">
				<path fill="#3cf1b9" d="M99.209,51.654c-0.559-1.299-1.834-2.14-3.245-2.14H26.172c-1.951,0-3.534,1.584-3.534,3.535v28.906     c0,1.95,1.583,3.53,3.534,3.53h42.457c0.971,0,1.9-0.398,2.566-1.104l27.336-28.905C99.5,54.453,99.768,52.947,99.209,51.654z" class="color7815ce svgShape"/>
				
				<path fill="#24b3b9" d="M26.172,85.486h42.457c0.971,0,1.9-0.398,2.566-1.104l26.648-28.179c-0.552-0.348-1.199-0.546-1.88-0.546     H26.172c-1.951,0-3.534,1.581-3.534,3.532v22.767C22.638,83.906,24.221,85.486,26.172,85.486z" class="colora02ff2 svgShape"/>
				
				<path fill="#33363a" d="M68.629,86.986H26.172c-2.775,0-5.034-2.256-5.034-5.03V53.05c0-2.776,2.259-5.035,5.034-5.035h69.792     c2.013,0,3.827,1.196,4.623,3.047c0.797,1.845,0.418,3.983-0.967,5.446L72.285,85.413C71.342,86.412,70.009,86.986,68.629,86.986     z M26.172,51.015c-1.122,0-2.034,0.913-2.034,2.035v28.906c0,1.12,0.912,2.03,2.034,2.03h42.457c0.558,0,1.096-0.231,1.476-0.634     l27.337-28.907c0.559-0.59,0.712-1.453,0.391-2.197c-0.323-0.75-1.056-1.234-1.868-1.234H26.172z" class="color33363a svgShape"/>
				</g>
				
				<g fill="#000000" class="color000 svgShape">
				<path fill="#3cf1b9" d="M48.202,73.271c0,2.085-1.692,3.777-3.778,3.777h-8.816c-2.087,0-3.779-1.692-3.779-3.777v-8.817    c0-2.087,1.692-3.777,3.779-3.777h8.816c2.086,0,3.778,1.69,3.778,3.777V73.271z" class="color7815ce svgShape"/>
			</g>
			
			<g fill="#000000" class="color000 svgShape">
			<path fill="#33363a" d="M44.424,78.549h-8.816c-2.911,0-5.279-2.367-5.279-5.277v-8.817c0-2.91,2.368-5.277,5.279-5.277h8.816    c2.91,0,5.278,2.367,5.278,5.277v8.817C49.702,76.182,47.334,78.549,44.424,78.549z M35.607,62.177    c-1.257,0-2.279,1.021-2.279,2.277v8.817c0,1.256,1.022,2.277,2.279,2.277h8.816c1.256,0,2.278-1.021,2.278-2.277v-8.817    c0-1.256-1.022-2.277-2.278-2.277H35.607z" class="color33363a svgShape"/></g>

			<g fill="#000000" class="color000 svgShape">
			<path fill="#33363a" d="M53.93,65.174h-5.728c-0.828,0-1.5-0.671-1.5-1.5s0.672-1.5,1.5-1.5h5.106l5.871-5.873    c0.281-0.281,0.663-0.439,1.061-0.439h15.445c0.828,0,1.5,0.671,1.5,1.5s-0.672,1.5-1.5,1.5H60.861l-5.871,5.873    C54.709,65.016,54.327,65.174,53.93,65.174z" class="color33363a svgShape"/></g>
			
			<g fill="#000000" class="color000 svgShape">
			<path fill="#33363a" d="M55.398,72.996h-6.904c-0.828,0-1.5-0.671-1.5-1.5s0.672-1.5,1.5-1.5h6.283l7.172-7.168    c0.281-0.281,0.663-0.439,1.061-0.439h18.621c0.828,0,1.5,0.671,1.5,1.5s-0.672,1.5-1.5,1.5h-18l-7.172,7.168    C56.178,72.838,55.796,72.996,55.398,72.996z" class="color33363a svgShape"/></g>
			
			<g fill="#000000" class="color000 svgShape">
			<path fill="#33363a" d="M72.275,72.07h-5.459c-0.828,0-1.5-0.671-1.5-1.5s0.672-1.5,1.5-1.5h5.459c0.828,0,1.5,0.671,1.5,1.5    S73.104,72.07,72.275,72.07z" class="color33363a svgShape"/></g>
			
			<g fill="#000000" class="color000 svgShape">
			<path fill="#33363a" d="M67.791,77.428h-5.457c-0.828,0-1.5-0.671-1.5-1.5s0.672-1.5,1.5-1.5h5.457c0.828,0,1.5,0.671,1.5,1.5    S68.619,77.428,67.791,77.428z" class="color33363a svgShape">
			</path></g>
			</svg>